<svg width="24" height="24" viewBox="0 0 24 24" fill="none" xmlns="http://www.w3.org/2000/svg">
<g clip-path="url(#clip0_11147_49)">
<path fill-rule="evenodd" clip-rule="evenodd" d="M21.9921 22.816C22.7601 22.224 23.2961 21.392 23.5281 20.8C23.9921 19.608 24.0001 18.256 24.0001 17.4V6.6C24.0001 5.752 24.0001 4.392 23.5281 3.2C23.2961 2.608 22.7521 1.768 21.9921 1.184C21.5521 0.84 21.0241 0.52 20.3041 0.304C19.5281 0.08 18.5841 0 17.4001 0H6.60012C5.41612 0 4.47212 0.08 3.69612 0.304C2.97612 0.52 2.44812 0.848 2.00812 1.184C1.24012 1.776 0.704122 2.608 0.472122 3.2C0.00812206 4.392 0.00012207 5.744 0.00012207 6.6V17.4C0.00012207 18.256 0.00812206 19.608 0.472122 20.8C0.704122 21.392 1.24812 22.232 2.00812 22.816C2.44812 23.16 2.97612 23.48 3.69612 23.696C4.47212 23.92 5.41612 24 6.60012 24H17.4001C18.5841 24 19.5361 23.928 20.3041 23.696C21.0241 23.48 21.5521 23.152 21.9921 22.816ZM3.5601 10.992C3.6241 6.4 7.3841 2.672 11.9761 2.656C16.6401 2.648 20.4401 6.44 20.4561 11.096C20.4561 14.776 18.0961 17.912 14.8081 19.064C14.7281 19.096 14.6401 19.032 14.6561 18.944L14.7761 18.08C14.7841 17.976 14.8481 17.888 14.9441 17.848C17.5441 16.704 19.3681 14.112 19.3681 11.096C19.3681 7.016 16.0321 3.704 11.9441 3.736C7.9521 3.768 4.6881 7.024 4.6481 11.024C4.6161 14.072 6.4481 16.704 9.0721 17.848C9.1601 17.896 9.2241 17.976 9.2401 18.08C9.26143 18.272 9.28989 18.4641 9.31833 18.656C9.33255 18.752 9.34678 18.848 9.3601 18.944C9.3681 19.024 9.2881 19.096 9.2081 19.064C5.8881 17.896 3.5121 14.712 3.5601 10.992ZM13.9681 10.408C13.9681 11.496 13.0881 12.376 12.0001 12.376C10.9121 12.376 10.0321 11.496 10.0321 10.408C10.0321 9.32 10.9121 8.44 12.0001 8.44C13.0881 8.44 13.9681 9.328 13.9681 10.408ZM13.7361 13.8C13.9281 13.992 14.0241 14.2 14.0561 14.488C14.1201 15.048 14.0881 15.528 14.0161 16.304C13.9521 17.04 13.8321 18.016 13.6801 19.016C13.5681 19.728 13.4801 20.112 13.4001 20.384C13.2721 20.824 12.7761 21.216 12.0001 21.216C11.2241 21.216 10.7361 20.832 10.6001 20.384C10.5201 20.112 10.4321 19.728 10.3201 19.016C10.1681 18.024 10.0481 17.04 9.9841 16.304L9.98339 16.2954C9.91981 15.5244 9.88034 15.0459 9.9441 14.488C9.9761 14.2 10.0801 14 10.2641 13.8C10.6241 13.416 11.2561 13.176 12.0001 13.176C12.7441 13.176 13.3761 13.424 13.7361 13.8ZM11.7841 5.456C8.79211 5.568 6.39211 8.04 6.35211 11.032C6.32811 13 7.31211 14.744 8.82411 15.776C8.89611 15.824 9.00011 15.768 9.00011 15.68C8.97611 15.336 8.97611 15.032 8.99211 14.712C9.00011 14.608 8.96011 14.512 8.88011 14.44C7.96011 13.576 7.40011 12.344 7.43211 10.984C7.49611 8.584 9.42411 6.632 11.8241 6.536C14.4321 6.432 16.5761 8.528 16.5761 11.104C16.5761 12.416 16.0161 13.6 15.1281 14.44C15.0561 14.512 15.0161 14.608 15.0161 14.712C15.0321 15.024 15.0241 15.328 15.0081 15.672C15.0001 15.76 15.1041 15.824 15.1841 15.768C16.6721 14.752 17.6561 13.032 17.6561 11.096C17.6641 7.912 15.0001 5.328 11.7841 5.456Z" fill="#0027D5"/>
</g>
<defs>
<clipPath id="clip0_11147_49">
<rect width="24" height="24" fill="white"/>
</clipPath>
</defs>
</svg>
